<svg width="19" height="18" viewBox="0 0 19 18" fill="none" xmlns="http://www.w3.org/2000/svg">
<g clip-path="url(#clip0_2770_9677)">
<path d="M9.16017 1.48926C7.73517 1.48926 6.39042 1.72793 5.18667 2.1458C2.23692 3.24027 0.169922 5.88576 0.169922 8.98926C0.169922 12.0727 2.23692 14.7189 5.18667 15.8327C6.41067 16.2506 7.75542 16.4893 9.18042 16.4893C10.5238 16.4881 11.8583 16.2732 13.1329 15.8528C16.0827 14.7583 18.1699 12.0928 18.1699 9.00933V8.98926C18.1699 5.88576 16.0827 3.24027 13.1329 2.1458C11.8544 1.71064 10.5119 1.48879 9.16017 1.48926ZM8.33742 3.97563H9.96267V6.82112C11.1064 6.52222 11.9892 5.50804 12.0492 4.29386L13.6752 4.31393C13.5552 6.34377 12.0102 7.99441 10.0024 8.31264V9.6458C12.0094 9.96403 13.5544 11.6347 13.6954 13.6638L12.0702 13.6847C12.0102 12.4705 11.1267 11.4563 9.98292 11.1381V14.0029H8.35767V11.1381C7.78051 11.2882 7.26596 11.6153 6.88748 12.0726C6.509 12.53 6.28595 13.0942 6.25017 13.6847L4.62492 13.6638C4.69102 12.6788 5.09217 11.745 5.76282 11.0152C6.43347 10.2854 7.33396 9.80261 8.31717 9.6458V8.33272C6.31017 8.03456 4.74492 6.36311 4.62492 4.33475L6.25017 4.31468C6.28169 4.90109 6.5011 5.46223 6.87649 5.91649C7.25188 6.37075 7.76368 6.69443 8.33742 6.84045V3.97563Z" fill="black"/>
</g>
<defs>
<clipPath id="clip0_2770_9677">
<rect width="18.3398" height="17.9785" fill="white"/>
</clipPath>
</defs>
</svg>
